# xmcd
#
# Track frame offsets:
#	150
#	17792
#	35487
#	54743
#	68302
#	86330
#	99297
#	119431
#	136691
#	155579
#	172612
#	186732
#	203467
#	216877
#	237074
#
# Disc length: 3470 seconds
#
# Revision: 0
# Processed by: cddbd v1.5PL3 Copyright (c) Steve Scherf et al.
# Submitted via: dBpowerAMP V4.0
#
DISCID=bb0d8c0f
DTITLE=Brooks and Dunn - Red Dirt Road
DYEAR=1900
DGENRE=
TTITLE0=You Can't Take The Honky Tonk Out Of The Girl
TTITLE1=Caroline
TTITLE2=When We Were Kings
TTITLE3=Thats' What She Got For Loving Me
TTITLE4=Red Dirt Road
TTITLE5=Feels Good Don't It
TTITLE6=I Used To Know This Song By Heart
TTITLE7=Believer
TTITLE8=Memory Town
TTITLE9=She Was Born To Run
TTITLE10=Til My Dyin Days
TTITLE11=My Baby's Everything I Love
TTITLE12=Good Day To Be Me
TTITLE13=Good Cowboy
TTITLE14=Holy War
EXTD=
EXTT0=
EXTT1=
EXTT2=
EXTT3=
EXTT4=
EXTT5=
EXTT6=
EXTT7=
EXTT8=
EXTT9=
EXTT10=
EXTT11=
EXTT12=
EXTT13=
EXTT14=
PLAYORDER=
